<svg width="9" height="8" viewBox="0 0 9 8" fill="none" xmlns="http://www.w3.org/2000/svg">
<path d="M0.37003 3.23687C-0.228329 3.50745 -0.0635633 4.28962 0.595496 4.29385L3.75639 4.30653C3.80842 4.30653 3.82143 4.31922 3.82143 4.36997L3.8301 7.42674C3.83444 8.09477 4.64961 8.21314 4.94011 7.60009L8.14437 0.881904C8.43919 0.256172 7.93622 -0.187761 7.29886 0.103966L0.37003 3.23687ZM1.12448 3.63429C1.10714 3.63429 1.1028 3.61738 1.12448 3.60892L7.3552 0.826942C7.38557 0.814257 7.39858 0.822717 7.38557 0.856538L4.51516 6.92787C4.51086 6.94475 4.4935 6.94055 4.4935 6.92362L4.51516 3.93447C4.51516 3.74844 4.38076 3.61738 4.18565 3.61738L1.12448 3.63429Z" fill="white"/>
</svg>
