<svg width="10" height="13" viewBox="0 0 10 13" fill="none" xmlns="http://www.w3.org/2000/svg">
<path d="M9.8089 9.89277C9.8089 11.22 7.77893 12.146 4.9122 12.146C2.04029 12.146 0 11.22 0 9.89277C0 8.78835 1.42364 7.96039 3.56923 7.71991V8.12307C3.56923 8.27199 3.57315 8.41428 3.5823 8.54761C2.0882 8.74215 1.05372 9.26373 1.05372 9.89277C1.05372 10.7056 2.73761 11.3332 4.90704 11.3332C7.06615 11.3332 8.76035 10.6953 8.76035 9.89277C8.76035 9.26694 7.71673 8.74252 6.22172 8.54735C6.23071 8.41412 6.23452 8.27194 6.23452 8.12307V7.71802C8.38466 7.95581 9.8089 8.78535 9.8089 9.89277Z" fill="#999999"/>
<path d="M6.84401 2.78829C6.84401 3.69371 6.22416 4.45509 5.38221 4.66087V7.9173C5.38221 9.44005 5.11361 10.2632 4.90699 10.2632C4.69522 10.2632 4.42662 9.43494 4.42662 7.9173V4.66087C3.58468 4.44995 2.96484 3.69371 2.96484 2.78829C2.96484 1.72338 3.82745 0.848831 4.90699 0.848831C5.98138 0.848831 6.84401 1.72338 6.84401 2.78829ZM3.68799 2.22754C3.68799 2.58765 3.9979 2.89632 4.34915 2.89632C4.71588 2.89632 5.01547 2.58765 5.01547 2.22754C5.01547 1.87258 4.71588 1.56906 4.34915 1.56906C3.9979 1.56906 3.68799 1.87258 3.68799 2.22754Z" fill="#999999"/>
</svg>
