<svg width="10" height="10" viewBox="0 0 10 10" fill="none" xmlns="http://www.w3.org/2000/svg">
<path d="M7.29649 9.99984C8.17085 9.99984 8.74877 9.75919 9.25629 9.18061C9.29648 9.13453 9.33167 9.09358 9.37186 9.04749C9.67335 8.70958 9.81409 8.37675 9.81409 8.05928C9.81409 7.69064 9.60805 7.33222 9.16078 7.01989L7.89951 6.13921C7.51256 5.87297 7.18591 5.85761 6.70349 6.09313L5.92464 6.48227C5.77387 6.55394 5.64322 6.55394 5.49749 6.46182C5.27638 6.31842 4.71859 5.86275 4.34171 5.46847C3.9598 5.07935 3.58794 4.61341 3.42211 4.32156C3.35678 4.2038 3.36683 4.10652 3.45226 3.96827L3.90452 3.24632C4.1005 2.92887 4.1608 2.49366 3.90955 2.12501L2.91457 0.670872C2.60301 0.215175 2.26633 0.00524815 1.90452 0.000127981C1.59296 -0.0049922 1.26633 0.143493 0.929648 0.450704C0.889449 0.486545 0.844218 0.527505 0.80402 0.568469C0.236181 1.08049 0 1.66931 0 2.5551C0 4.01947 0.889449 5.81152 2.50251 7.44998C4.10553 9.08335 5.85929 9.99984 7.29649 9.99984ZM7.30153 9.22156C6.02009 9.2472 4.38191 8.24362 3.0804 6.92263C1.76884 5.59137 0.738695 3.86075 0.763821 2.54998C0.773871 1.98676 0.964824 1.50546 1.36181 1.15217C1.39196 1.12657 1.42211 1.10097 1.45226 1.07537C1.60301 0.942242 1.76884 0.870559 1.90955 0.870559C2.0603 0.870559 2.18593 0.92688 2.28643 1.08049L3.19095 2.46294C3.27638 2.59094 3.27135 2.70358 3.17085 2.88279L2.66834 3.70202C2.44724 4.06555 2.48743 4.34204 2.70854 4.64925C3 5.04351 3.43719 5.61187 3.82412 6.00101C4.20603 6.39009 4.84422 6.94308 5.19096 7.18888C5.49245 7.41417 5.76383 7.46534 6.23117 7.23496L7.07538 6.82532C7.26633 6.73829 7.4171 6.76387 7.57791 6.86627L8.75376 7.67019C8.90453 7.76745 8.95979 7.90057 8.95979 8.05419C8.95979 8.19754 8.88945 8.36652 8.7588 8.52009C8.73369 8.55082 8.70853 8.58154 8.68342 8.61226C8.3367 9.01677 7.85928 9.21134 7.30153 9.22156Z" fill="white"/>
</svg>
